<svg xmlns="http://www.w3.org/2000/svg" width="16" height="16" fill="currentColor" class="qi-307" viewBox="0 0 16 16">
<path d="M15.5 5.27 C 15.5 3.511 14.074 2.085 12.315 2.086 C 12.182 2.091 12.05
 2.104 11.919 2.126 C 10.075 -0.709 5.925 -0.709 4.081 2.126 C 3.95 2.104 3.818
2.091 3.685 2.086 C 1.234 2.087 -0.297 4.741 0.93 6.863 C 1.734 8.254 3.448 
8.828 4.928 8.202 C 6.678 9.766 9.322 9.766 11.072 8.202 C 13.172 9.092 15.5 
7.551 15.5 5.27 Z M 12.315 7.455 C 12.022 7.455 11.732 7.397 11.463 7.282 C 11.11 
7.132 10.702 7.196 10.413 7.449 C 9.041 8.683 6.958 8.683 5.586 7.449 C 5.297 
7.197 4.89 7.132 4.537 7.282 C 2.989 7.94 1.309 6.675 1.514 5.005 C 1.648 3.909 2.58 
3.085 3.685 3.086 C 3.742 3.088 3.799 3.094 3.855 3.104 L 3.956 3.118 C 4.335 3.166 4.709 
2.994 4.918 2.674 C 6.367 0.443 9.633 0.443 11.082 2.674 C 11.291 2.994 11.665 3.166 12.044 
3.118 L 12.146 3.104 C 12.202 3.094 12.259 3.088 12.316 3.086 C 13.998 3.086 15.049 4.906 
14.208 6.363 C 13.818 7.039 13.096 7.455 12.316 7.455 L 12.315 7.455 Z M 7.05 13.449 C 7.05 
14.219 7.883 14.7 8.55 14.315 C 8.859 14.136 9.05 13.806 9.05 13.449 C 8.833 12.73 8.495 
12.054 8.05 11.449 C 7.605 12.054 7.267 12.73 7.05 13.449 Z M 1.05 11.124 C 1.05 11.729 
1.705 12.107 2.229 11.805 C 2.472 11.664 2.622 11.405 2.622 11.124 C 2.451 10.559 2.186 
10.027 1.836 9.551 C 1.486 10.027 1.221 10.559 1.05 11.124 Z M 13.48 11.124 C 13.48 11.729 
14.135 12.107 14.659 11.805 C 14.902 11.664 15.052 11.405 15.052 11.124 C 14.881 10.559 
14.615 10.027 14.265 9.551 C 13.915 10.027 13.65 10.559 13.479 11.124 L 13.48 11.124 Z" style="fill-rule:evenodd"/>
</svg>
