<svg xmlns="http://www.w3.org/2000/svg" width="16" height="16" fill="currentColor" class="qi-301" viewBox="0 0 16 16">
  <path d="M 10.604 13.328 C 10.604 14.098 11.437 14.579 12.104 14.194 C 12.413 14.016 12.604 13.686 12.604 13.328 C 12.387 12.61 12.049 11.933 11.604 11.328 C 11.159 11.933 10.821 12.61 10.604 13.328 Z M 16.632 13.328 C 16.632 14.098 17.465 14.579 18.132 14.194 C 18.441 14.016 18.632 13.686 18.632 13.328 C 18.415 12.61 18.077 11.933 17.632 11.328 C 17.187 11.933 16.849 12.61 16.632 13.328 Z M 11.852 1.232 L 11.859 1.232 C 12.135 1.229 12.355 1.002 12.352 0.726 L 12.34 -0.178 C 12.337 -0.451 12.114 -0.672 11.84 -0.672 L 11.833 -0.672 C 11.557 -0.668 11.337 -0.441 11.34 -0.166 L 11.352 0.739 C 11.356 1.013 11.579 1.232 11.852 1.232 Z M 8.96 2.178 C 9.232 2.45 9.697 2.325 9.796 1.954 C 9.844 1.777 9.79 1.589 9.658 1.462 L 9.01 0.832 C 8.749 0.549 8.28 0.654 8.165 1.021 C 8.106 1.211 8.164 1.417 8.313 1.547 L 8.96 2.178 Z M 8.781 4.381 C 8.777 4.108 8.554 3.888 8.281 3.888 L 8.274 3.888 L 7.369 3.899 C 6.984 3.902 6.747 4.32 6.941 4.652 C 7.032 4.807 7.197 4.901 7.376 4.899 L 7.383 4.899 L 8.287 4.888 C 8.564 4.885 8.785 4.658 8.781 4.381 Z M 14.419 2.261 C 14.554 2.262 14.684 2.207 14.778 2.11 L 15.408 1.462 C 15.673 1.184 15.538 0.722 15.163 0.632 C 14.994 0.591 14.815 0.641 14.692 0.764 L 14.061 1.412 C 13.792 1.688 13.923 2.151 14.296 2.246 C 14.336 2.256 14.378 2.261 14.419 2.261 Z" transform="matrix(1, 0, 0, 1, -6.251273, 0.690512)"/>
  <path d="M 18.673 4.907 C 18.549 4.911 18.425 4.924 18.303 4.944 C 17.11 3.11 14.882 2.547 13.054 3.256 C 12.245 3.57 11.515 4.133 10.987 4.944 C 10.865 4.924 10.741 4.911 10.617 4.907 C 8.329 4.908 6.901 7.386 8.046 9.366 C 8.796 10.665 10.396 11.2 11.777 10.616 C 13.41 12.076 15.879 12.076 17.512 10.616 C 19.62 11.506 21.9 9.78 21.617 7.51 C 21.432 6.024 20.17 4.908 18.672 4.906 L 18.673 4.907 Z M 18.673 9.851 C 18.408 9.852 18.146 9.798 17.903 9.695 C 17.55 9.545 17.142 9.61 16.853 9.863 C 15.597 10.992 13.692 10.992 12.436 9.863 C 12.147 9.61 11.739 9.545 11.386 9.695 C 9.988 10.287 8.474 9.143 8.66 7.637 C 8.782 6.649 9.622 5.907 10.617 5.907 C 10.667 5.909 10.717 5.915 10.767 5.924 L 10.862 5.936 C 11.241 5.984 11.615 5.812 11.824 5.492 C 13.15 3.45 16.14 3.45 17.466 5.492 C 17.675 5.812 18.049 5.984 18.428 5.936 L 18.523 5.924 C 18.573 5.915 18.623 5.909 18.673 5.907 C 20.191 5.907 21.14 7.55 20.381 8.865 C 20.029 9.475 19.378 9.851 18.673 9.851 Z M 9.127 4.643 C 9.45 4.496 9.793 4.399 10.145 4.355 C 10.26 3.442 11.034 2.755 11.955 2.752 C 12.143 2.755 12.33 2.787 12.508 2.847 C 12.915 2.654 13.346 2.518 13.789 2.442 C 12.149 1.019 9.584 1.905 9.172 4.037 C 9.137 4.218 9.12 4.403 9.121 4.588 C 9.121 4.608 9.127 4.625 9.127 4.644 L 9.127 4.643 Z" transform="matrix(1, 0, 0, 1, -6.251273, 0.690512)"/>
  <path d="M 8.677 13.6 C 8.636 13.6 8.609 13.565 8.628 13.534 L 9.228 12.513 C 9.246 12.481 9.219 12.445 9.179 12.445 L 7.984 12.445 C 7.942 12.444 7.904 12.465 7.882 12.5 L 6.824 14.373 C 6.792 14.429 6.841 14.494 6.914 14.494 L 7.989 14.494 C 8.026 14.494 8.052 14.525 8.041 14.555 L 7.482 15.936 C 7.46 15.986 7.536 16.02 7.576 15.981 L 9.831 13.676 C 9.86 13.647 9.835 13.6 9.789 13.6 L 8.677 13.6 Z"/>
</svg>