<svg xmlns="http://www.w3.org/2000/svg" width="16" height="16" fill="currentColor" class="qi-407" viewBox="0 0 16 16">
  <path d="M 5.631 1.902 L 5.638 1.902 C 5.914 1.898 6.134 1.672 6.131 1.396 L 6.12 0.492 C 6.117 0.218 5.894 -0.002 5.62 -0.002 L 5.613 -0.002 C 5.337 0.002 5.117 0.228 5.12 0.504 L 5.131 1.409 C 5.135 1.682 5.358 1.902 5.631 1.902 Z M 2.74 2.848 C 3.005 3.127 3.473 3.014 3.582 2.645 C 3.637 2.461 3.58 2.261 3.437 2.132 L 2.79 1.502 C 2.525 1.222 2.057 1.334 1.948 1.703 C 1.893 1.888 1.949 2.088 2.092 2.217 L 2.74 2.848 Z M 2.56 5.051 C 2.556 4.777 2.333 4.558 2.06 4.558 L 2.053 4.558 L 1.15 4.568 C 0.765 4.571 0.527 4.989 0.722 5.321 C 0.813 5.475 0.978 5.569 1.157 5.568 L 1.164 5.568 L 2.068 5.557 C 2.344 5.553 2.565 5.326 2.561 5.05 L 2.56 5.051 Z M 8.199 2.931 C 8.334 2.931 8.463 2.876 8.557 2.78 L 9.188 2.132 C 9.457 1.856 9.326 1.393 8.952 1.298 C 8.779 1.254 8.596 1.306 8.471 1.434 L 7.841 2.081 C 7.572 2.356 7.701 2.819 8.073 2.915 C 8.114 2.926 8.157 2.931 8.199 2.931 Z M 12.452 5.577 C 12.328 5.581 12.204 5.594 12.082 5.614 C 10.361 2.969 6.488 2.969 4.767 5.614 C 4.645 5.594 4.521 5.581 4.397 5.577 C 2.109 5.578 0.681 8.056 1.826 10.036 C 2.576 11.335 4.176 11.87 5.557 11.286 C 7.19 12.746 9.659 12.746 11.292 11.286 C 13.4 12.176 15.68 10.45 15.397 8.18 C 15.212 6.694 13.949 5.578 12.452 5.576 L 12.452 5.577 Z M 12.452 10.521 C 12.187 10.521 11.925 10.468 11.682 10.365 C 11.329 10.215 10.921 10.28 10.633 10.533 C 9.377 11.663 7.472 11.663 6.216 10.533 C 5.927 10.28 5.519 10.215 5.166 10.365 C 3.768 10.957 2.254 9.813 2.44 8.307 C 2.562 7.319 3.401 6.578 4.396 6.577 C 4.446 6.579 4.496 6.585 4.546 6.594 L 4.642 6.606 C 5.021 6.653 5.394 6.481 5.603 6.162 C 6.929 4.119 9.92 4.119 11.246 6.162 C 11.455 6.481 11.828 6.653 12.207 6.606 L 12.303 6.594 C 12.352 6.585 12.403 6.579 12.453 6.577 C 13.971 6.577 14.92 8.22 14.161 9.535 C 13.808 10.145 13.157 10.521 12.453 10.521 L 12.452 10.521 Z M 14.183 13.77 L 13.743 13.516 L 14.177 13.265 C 14.407 13.125 14.399 12.788 14.163 12.659 C 14.058 12.602 13.932 12.602 13.827 12.659 L 13.392 12.909 L 13.392 12.401 C 13.406 12.132 13.124 11.948 12.884 12.07 C 12.76 12.133 12.686 12.263 12.693 12.401 L 12.693 12.91 L 12.258 12.659 C 12.022 12.53 11.734 12.705 11.74 12.974 C 11.743 13.093 11.806 13.203 11.908 13.265 L 12.342 13.515 L 11.902 13.77 C 11.666 13.899 11.658 14.236 11.888 14.376 C 12 14.444 12.14 14.444 12.252 14.376 L 12.693 14.121 L 12.693 14.624 C 12.693 14.893 12.985 15.062 13.218 14.927 C 13.326 14.864 13.393 14.749 13.393 14.624 L 13.393 14.122 L 13.833 14.376 C 14.069 14.505 14.357 14.33 14.351 14.061 C 14.348 13.942 14.285 13.832 14.183 13.77 Z M 5.024 13.716 L 4.584 13.462 L 5.018 13.211 C 5.248 13.071 5.24 12.734 5.004 12.605 C 4.899 12.548 4.773 12.548 4.668 12.605 L 4.234 12.855 L 4.234 12.347 C 4.248 12.078 3.966 11.894 3.726 12.016 C 3.602 12.079 3.528 12.209 3.535 12.347 L 3.535 12.856 L 3.099 12.605 C 2.863 12.476 2.575 12.651 2.581 12.92 C 2.584 13.039 2.647 13.149 2.749 13.211 L 3.184 13.461 L 2.744 13.716 C 2.508 13.845 2.5 14.182 2.73 14.322 C 2.842 14.39 2.982 14.39 3.094 14.322 L 3.535 14.067 L 3.535 14.57 C 3.535 14.839 3.827 15.008 4.06 14.873 C 4.168 14.81 4.235 14.695 4.235 14.57 L 4.235 14.068 L 4.675 14.322 C 4.911 14.451 5.199 14.276 5.193 14.007 C 5.19 13.888 5.127 13.778 5.025 13.716 L 5.024 13.716 Z M 2.906 5.313 C 3.229 5.166 3.572 5.069 3.924 5.025 C 4.039 4.111 4.815 3.424 5.736 3.422 C 5.924 3.425 6.11 3.457 6.288 3.517 C 6.695 3.324 7.126 3.188 7.57 3.112 C 5.932 1.688 3.366 2.571 2.952 4.702 C 2.916 4.885 2.899 5.071 2.9 5.258 C 2.9 5.278 2.906 5.295 2.906 5.314 L 2.906 5.313 Z"/>
  <path d="M 9.67 14.769 L 9.23 14.515 L 9.664 14.264 C 9.894 14.124 9.886 13.787 9.65 13.658 C 9.545 13.601 9.419 13.601 9.314 13.658 L 8.879 13.908 L 8.879 13.4 C 8.893 13.131 8.611 12.947 8.371 13.069 C 8.247 13.132 8.173 13.262 8.18 13.4 L 8.18 13.909 L 7.745 13.658 C 7.509 13.529 7.221 13.704 7.227 13.973 C 7.23 14.092 7.293 14.202 7.395 14.264 L 7.829 14.514 L 7.389 14.769 C 7.153 14.898 7.145 15.235 7.375 15.375 C 7.487 15.443 7.627 15.443 7.739 15.375 L 8.18 15.12 L 8.18 15.623 C 8.18 15.892 8.472 16.061 8.705 15.926 C 8.813 15.863 8.88 15.748 8.88 15.623 L 8.88 15.121 L 9.32 15.375 C 9.556 15.504 9.844 15.329 9.838 15.06 C 9.835 14.941 9.772 14.831 9.67 14.769 Z"/>
</svg>