<svg xmlns="http://www.w3.org/2000/svg" width="16" height="16" fill="currentColor" class="qi-150" viewBox="0 0 16 16">
  <path d="M 14.185 6.664 L 7.208 6.664 C 6.823 6.664 6.583 7.081 6.775 7.414 C 6.864 7.569 7.029 7.664 7.208 7.664 L 14.185 7.664 C 14.57 7.664 14.81 7.247 14.618 6.914 C 14.529 6.759 14.364 6.664 14.185 6.664 Z M 5.679 7.664 C 6.064 7.664 6.304 7.247 6.112 6.914 C 6.023 6.759 5.858 6.664 5.679 6.664 L 3.689 6.664 C 3.304 6.664 3.064 7.081 3.256 7.414 C 3.345 7.569 3.51 7.664 3.689 7.664 L 5.679 7.664 Z M 12.496 9.477 C 12.881 9.477 13.121 9.06 12.929 8.727 C 12.84 8.572 12.675 8.477 12.496 8.477 L 10.507 8.477 C 10.122 8.477 9.882 8.894 10.074 9.227 C 10.163 9.382 10.328 9.477 10.507 9.477 L 12.496 9.477 Z M 4.18 10.29 L 2.19 10.29 C 1.805 10.29 1.565 10.707 1.757 11.04 C 1.846 11.195 2.011 11.29 2.19 11.29 L 4.18 11.29 C 4.565 11.29 4.805 10.873 4.613 10.54 C 4.524 10.385 4.359 10.29 4.18 10.29 Z M 9.666 8.977 C 9.666 8.701 9.442 8.477 9.166 8.477 L 1.191 8.477 C 0.806 8.477 0.566 8.894 0.758 9.227 C 0.847 9.382 1.012 9.477 1.191 9.477 L 9.166 9.477 C 9.442 9.477 9.666 9.253 9.666 8.977 Z M 12.777 10.321 L 5.801 10.321 C 5.416 10.321 5.176 10.738 5.368 11.071 C 5.457 11.226 5.622 11.321 5.801 11.321 L 12.777 11.321 C 13.162 11.321 13.402 10.904 13.21 10.571 C 13.121 10.416 12.956 10.321 12.777 10.321 Z"/>
  <path d="M 5.377 3.644 C 5.298 4.534 5.401 5.43 5.677 6.28 C 6.307 8.221 7.808 9.755 9.734 10.427 C 10.435 10.675 11.172 10.802 11.915 10.805 C 12.138 10.805 12.36 10.793 12.581 10.769 C 11.632 12.295 9.966 13.227 8.168 13.237 C 8.068 13.237 7.966 13.234 7.865 13.228 C 3.864 12.981 1.63 8.495 3.844 5.153 C 4.245 4.549 4.767 4.035 5.377 3.644 M 6.048 2.237 C 5.986 2.237 5.924 2.249 5.866 2.273 C 3.387 3.27 1.824 5.743 1.988 8.41 C 2.209 11.528 4.69 14.008 7.808 14.227 C 7.928 14.234 8.048 14.237 8.168 14.237 C 10.728 14.235 13.023 12.658 13.943 10.269 C 14.063 9.939 13.815 9.591 13.463 9.598 C 13.416 9.598 13.369 9.604 13.323 9.617 C 12.864 9.742 12.391 9.806 11.915 9.806 C 11.284 9.804 10.659 9.695 10.064 9.484 C 7.351 8.528 5.814 5.66 6.522 2.872 C 6.606 2.557 6.374 2.246 6.048 2.237 Z"/>
</svg>