<svg xmlns="http://www.w3.org/2000/svg" width="16" height="16" fill="currentColor" class="qi-151" viewBox="0 0 16 16">
  <path d="M 14.51 8.677 C 14.473 8.677 14.437 8.682 14.401 8.692 C 14.048 8.788 13.685 8.837 13.319 8.837 C 12.834 8.835 12.352 8.752 11.895 8.589 C 9.807 7.855 8.625 5.648 9.17 3.503 C 9.235 3.261 9.056 3.022 8.805 3.015 C 8.757 3.015 8.71 3.024 8.665 3.042 C 6.758 3.81 5.557 5.712 5.684 7.763 C 5.691 7.883 5.564 7.444 5.68 7.798 C 5.901 7.769 6.205 7.746 6.13 7.536 C 5.947 7.023 6.354 7.587 6.466 7.595 C 6.439 7.468 6.675 7.537 6.662 7.408 C 6.589 6.206 7.113 5.336 8.039 4.566 C 8.043 5.119 8.112 5.676 8.301 6.195 C 8.748 7.422 10.076 8.82 11.565 9.533 C 12.065 9.772 12.987 9.554 13.319 9.837 L 13.366 9.837 C 13.113 10.139 13.701 9.926 13.367 10.135 C 13.686 10.3 13.646 10.451 13.906 10.698 C 14.589 10.17 14.564 9.998 14.879 9.193 C 14.972 8.939 14.78 8.671 14.509 8.677 L 14.51 8.677 Z"/>
  <path d="M 11.804 8.643 C 11.671 8.648 11.539 8.662 11.408 8.683 C 9.564 5.848 5.414 5.848 3.57 8.683 C 3.439 8.661 3.306 8.648 3.173 8.643 C 0.722 8.647 -0.806 11.303 0.423 13.423 C 1.227 14.812 2.939 15.385 4.417 14.76 C 6.167 16.324 8.812 16.324 10.561 14.76 C 12.817 15.72 15.266 13.877 14.969 11.443 C 14.774 9.844 13.416 8.643 11.805 8.644 L 11.804 8.643 Z M 11.804 14.013 C 11.511 14.014 11.221 13.955 10.952 13.84 C 10.599 13.69 10.191 13.755 9.902 14.008 C 8.53 15.242 6.448 15.242 5.075 14.008 C 4.787 13.756 4.379 13.69 4.026 13.84 C 2.478 14.498 0.798 13.233 1.003 11.564 C 1.137 10.467 2.068 9.643 3.173 9.644 C 3.23 9.646 3.287 9.652 3.343 9.662 L 3.445 9.676 C 3.824 9.724 4.198 9.552 4.407 9.232 C 5.856 7.001 9.122 7.001 10.571 9.232 C 10.781 9.552 11.154 9.724 11.533 9.676 L 11.635 9.662 C 11.691 9.652 11.748 9.646 11.805 9.644 C 13.487 9.644 14.538 11.465 13.697 12.921 C 13.307 13.597 12.586 14.013 11.805 14.013 L 11.804 14.013 Z"/>
</svg>