<svg xmlns="http://www.w3.org/2000/svg" width="16" height="16" fill="currentColor" class="qi-457" viewBox="0 0 16 16">
  <path d="M 8.933 14.795 L 8.493 14.541 L 8.927 14.29 C 9.157 14.15 9.149 13.813 8.913 13.684 C 8.808 13.627 8.682 13.627 8.577 13.684 L 8.142 13.934 L 8.142 13.426 C 8.156 13.157 7.874 12.973 7.634 13.095 C 7.51 13.158 7.436 13.288 7.443 13.426 L 7.443 13.935 L 7.008 13.684 C 6.772 13.555 6.484 13.73 6.49 13.999 C 6.493 14.118 6.556 14.228 6.658 14.29 L 7.092 14.54 L 6.652 14.795 C 6.416 14.924 6.408 15.261 6.638 15.401 C 6.75 15.469 6.89 15.469 7.002 15.401 L 7.443 15.146 L 7.443 15.649 C 7.443 15.918 7.735 16.087 7.968 15.952 C 8.076 15.889 8.143 15.774 8.143 15.649 L 8.143 15.147 L 8.583 15.401 C 8.819 15.53 9.107 15.355 9.101 15.086 C 9.098 14.967 9.035 14.857 8.933 14.795 Z"/>
  <path d="M 15.113 4.215 C 15.086 4.215 15.059 4.218 15.033 4.225 C 14.771 4.297 14.499 4.334 14.227 4.334 C 13.866 4.333 13.508 4.27 13.167 4.149 C 11.613 3.602 10.734 1.96 11.139 0.363 C 11.187 0.183 11.054 0.005 10.867 0 C 10.832 0 10.796 0.007 10.763 0.02 C 9.488 0.536 8.626 1.743 8.552 3.116 C 8.892 3.179 9.224 3.277 9.543 3.409 C 9.52 2.805 9.712 2.213 10.083 1.737 C 10.118 1.977 10.173 2.213 10.247 2.444 C 10.649 3.684 11.607 4.664 12.837 5.094 C 13.112 5.19 13.396 5.258 13.684 5.297 C 13.607 5.356 13.527 5.41 13.444 5.46 C 13.749 5.632 14.026 5.849 14.268 6.102 C 14.769 5.71 15.156 5.191 15.388 4.599 C 15.457 4.41 15.314 4.211 15.113 4.215 Z M 11.674 5.572 C 11.55 5.577 11.427 5.589 11.304 5.609 C 9.583 2.964 5.71 2.964 3.989 5.609 C 3.867 5.589 3.743 5.577 3.619 5.572 C 1.331 5.572 -0.099 8.048 1.044 10.029 C 1.795 11.33 3.397 11.866 4.779 11.28 C 6.412 12.74 8.881 12.74 10.514 11.28 C 12.62 12.173 14.904 10.452 14.625 8.181 C 14.441 6.691 13.175 5.572 11.674 5.572 Z M 11.674 10.516 C 11.41 10.517 11.148 10.463 10.904 10.36 C 10.551 10.21 10.144 10.276 9.855 10.528 C 8.599 11.657 6.694 11.657 5.438 10.528 C 5.149 10.275 4.741 10.21 4.388 10.36 C 2.99 10.952 1.476 9.808 1.662 8.302 C 1.785 7.314 2.623 6.573 3.618 6.572 C 3.668 6.574 3.719 6.579 3.768 6.588 L 3.864 6.601 C 3.906 6.606 3.947 6.609 3.989 6.609 C 4.326 6.609 4.64 6.439 4.825 6.157 C 6.152 4.114 9.142 4.114 10.468 6.157 C 10.653 6.439 10.967 6.609 11.304 6.609 C 11.346 6.609 11.388 6.606 11.429 6.601 L 11.525 6.588 C 11.575 6.579 11.625 6.574 11.675 6.572 C 13.193 6.572 14.142 8.215 13.383 9.53 C 13.031 10.14 12.38 10.516 11.675 10.516 L 11.674 10.516 Z M 13.06 13.962 L 12.62 13.708 L 13.054 13.457 C 13.284 13.317 13.276 12.98 13.04 12.851 C 12.935 12.794 12.809 12.794 12.704 12.851 L 12.269 13.101 L 12.269 12.593 C 12.284 12.324 12.001 12.14 11.761 12.262 C 11.638 12.325 11.563 12.455 11.57 12.593 L 11.57 13.102 L 11.135 12.851 C 10.899 12.722 10.611 12.897 10.617 13.166 C 10.62 13.285 10.683 13.395 10.785 13.457 L 11.219 13.707 L 10.779 13.962 C 10.543 14.091 10.535 14.428 10.765 14.568 C 10.877 14.636 11.017 14.636 11.129 14.568 L 11.57 14.313 L 11.57 14.816 C 11.57 15.085 11.862 15.254 12.095 15.119 C 12.203 15.057 12.27 14.941 12.27 14.816 L 12.27 14.314 L 12.71 14.568 C 12.947 14.697 13.234 14.522 13.228 14.253 C 13.225 14.134 13.162 14.024 13.06 13.962 Z M 4.374 13.752 L 3.934 13.498 L 4.368 13.247 C 4.598 13.107 4.59 12.77 4.354 12.641 C 4.249 12.584 4.123 12.584 4.018 12.641 L 3.584 12.891 L 3.584 12.383 C 3.599 12.114 3.316 11.93 3.076 12.052 C 2.953 12.115 2.878 12.245 2.885 12.383 L 2.885 12.892 L 2.449 12.641 C 2.213 12.512 1.925 12.687 1.931 12.956 C 1.934 13.075 1.997 13.185 2.099 13.247 L 2.534 13.497 L 2.094 13.752 C 1.858 13.881 1.85 14.218 2.08 14.358 C 2.192 14.426 2.332 14.426 2.444 14.358 L 2.885 14.103 L 2.885 14.606 C 2.885 14.875 3.177 15.044 3.41 14.909 C 3.518 14.847 3.585 14.731 3.585 14.606 L 3.585 14.104 L 4.025 14.358 C 4.262 14.487 4.549 14.312 4.543 14.043 C 4.54 13.924 4.477 13.814 4.375 13.752 L 4.374 13.752 Z"/>
</svg>