<svg xmlns="http://www.w3.org/2000/svg" width="16" height="16" fill="currentColor" class="qi-100" viewBox="0 0 16 16">
  <path d="M 14.185 6.664 L 7.208 6.664 C 6.823 6.664 6.583 7.081 6.775 7.414 C 6.864 7.569 7.029 7.664 7.208 7.664 L 14.185 7.664 C 14.57 7.664 14.81 7.247 14.618 6.914 C 14.529 6.759 14.364 6.664 14.185 6.664 Z M 5.679 7.664 C 6.064 7.664 6.304 7.247 6.112 6.914 C 6.023 6.759 5.858 6.664 5.679 6.664 L 3.689 6.664 C 3.304 6.664 3.064 7.081 3.256 7.414 C 3.345 7.569 3.51 7.664 3.689 7.664 L 5.679 7.664 Z M 12.496 9.477 C 12.881 9.477 13.121 9.06 12.929 8.727 C 12.84 8.572 12.675 8.477 12.496 8.477 L 10.507 8.477 C 10.122 8.477 9.882 8.894 10.074 9.227 C 10.163 9.382 10.328 9.477 10.507 9.477 L 12.496 9.477 Z M 4.18 10.29 L 2.19 10.29 C 1.805 10.29 1.565 10.707 1.757 11.04 C 1.846 11.195 2.011 11.29 2.19 11.29 L 4.18 11.29 C 4.565 11.29 4.805 10.873 4.613 10.54 C 4.524 10.385 4.359 10.29 4.18 10.29 Z M 9.666 8.977 C 9.666 8.701 9.442 8.477 9.166 8.477 L 1.191 8.477 C 0.806 8.477 0.566 8.894 0.758 9.227 C 0.847 9.382 1.012 9.477 1.191 9.477 L 9.166 9.477 C 9.442 9.477 9.666 9.253 9.666 8.977 Z M 12.777 10.321 L 5.801 10.321 C 5.416 10.321 5.176 10.738 5.368 11.071 C 5.457 11.226 5.622 11.321 5.801 11.321 L 12.777 11.321 C 13.162 11.321 13.402 10.904 13.21 10.571 C 13.121 10.416 12.956 10.321 12.777 10.321 Z"/>
  <path d="M 8 4.524 C 10.694 4.524 12.378 7.441 11.031 9.774 C 9.683 12.107 6.316 12.107 4.968 9.774 C 4.661 9.242 4.5 8.638 4.5 8.024 C 4.502 6.092 6.067 4.526 8 4.524 M 8 3.524 C 4.535 3.524 2.37 7.274 4.102 10.274 C 5.834 13.274 10.165 13.274 11.897 10.274 C 12.292 9.59 12.5 8.814 12.5 8.024 C 12.5 5.539 10.485 3.524 8 3.524 Z M 8.001 2.527 C 7.724 2.527 7.501 2.303 7.501 2.027 L 7.501 0.527 C 7.501 0.142 7.917 -0.099 8.251 0.094 C 8.405 0.183 8.501 0.348 8.501 0.527 L 8.501 2.027 C 8.501 2.303 8.277 2.527 8.001 2.527 Z"/>
  <path d="M 8.001 2.527 C 7.724 2.527 7.501 2.303 7.501 2.027 L 7.501 0.527 C 7.501 0.142 7.917 -0.099 8.251 0.094 C 8.405 0.183 8.501 0.348 8.501 0.527 L 8.501 2.027 C 8.501 2.303 8.277 2.527 8.001 2.527 Z M 3.76 4.279 C 3.627 4.279 3.5 4.226 3.407 4.132 L 2.345 3.072 C 2.077 2.795 2.21 2.333 2.583 2.239 C 2.75 2.198 2.927 2.245 3.052 2.365 L 4.115 3.424 C 4.387 3.696 4.263 4.161 3.891 4.261 C 3.849 4.272 3.805 4.278 3.761 4.278 L 3.76 4.279 Z M 1.998 8.517 L 0.498 8.517 C 0.113 8.517 -0.128 8.1 0.065 7.767 C 0.154 7.612 0.319 7.517 0.498 7.517 L 1.998 7.517 C 2.382 7.517 2.623 7.934 2.431 8.267 C 2.341 8.422 2.176 8.517 1.998 8.517 Z M 2.689 13.82 C 2.304 13.821 2.062 13.404 2.254 13.071 C 2.276 13.032 2.303 12.997 2.335 12.966 L 3.397 11.906 C 3.673 11.639 4.136 11.771 4.229 12.145 C 4.271 12.312 4.223 12.489 4.104 12.613 L 3.042 13.673 C 2.948 13.767 2.821 13.82 2.689 13.82 Z M 7.988 16.021 C 7.711 16.021 7.488 15.797 7.488 15.521 L 7.488 14.021 C 7.488 13.636 7.904 13.395 8.238 13.588 C 8.392 13.677 8.488 13.842 8.488 14.021 L 8.488 15.521 C 8.488 15.797 8.264 16.021 7.988 16.021 Z M 13.29 13.83 C 13.157 13.83 13.03 13.777 12.937 13.683 L 11.877 12.623 C 11.593 12.362 11.698 11.893 12.065 11.778 C 12.25 11.72 12.451 11.774 12.583 11.916 L 13.643 12.976 C 13.915 13.248 13.791 13.713 13.419 13.813 C 13.377 13.824 13.333 13.83 13.29 13.83 Z M 15.492 8.531 L 13.992 8.531 C 13.607 8.531 13.366 8.114 13.559 7.781 C 13.648 7.626 13.813 7.531 13.992 7.531 L 15.492 7.531 C 15.876 7.531 16.117 7.948 15.925 8.281 C 15.835 8.436 15.67 8.531 15.492 8.531 Z M 12.24 4.289 C 11.855 4.29 11.613 3.873 11.805 3.54 C 11.827 3.501 11.854 3.466 11.886 3.435 L 12.946 2.375 C 13.218 2.102 13.683 2.227 13.783 2.599 C 13.829 2.771 13.78 2.955 13.654 3.082 L 12.594 4.142 C 12.5 4.236 12.372 4.289 12.24 4.289 Z"/>
</svg>