<svg xmlns="http://www.w3.org/2000/svg" width="16" height="16" fill="currentColor" class="qi-101" viewBox="0 0 16 16">
  <path d="M 5.384 3.816 C 5.436 4.052 5.645 4.22 5.887 4.22 C 5.924 4.22 5.962 4.216 5.999 4.208 C 6.277 4.146 6.452 3.87 6.391 3.592 L 6.135 2.442 C 6.028 2.059 5.548 1.935 5.269 2.218 C 5.153 2.336 5.101 2.503 5.129 2.666 L 5.384 3.816 Z M 1.662 5.574 L 2.656 6.207 C 2.993 6.418 3.431 6.184 3.445 5.787 C 3.451 5.607 3.362 5.436 3.211 5.337 L 2.216 4.704 C 1.874 4.502 1.441 4.746 1.437 5.143 C 1.436 5.315 1.52 5.477 1.662 5.574 Z M 9.161 4.767 C 9.401 4.92 9.72 4.849 9.873 4.609 L 10.506 3.615 C 10.708 3.273 10.463 2.841 10.066 2.837 C 9.894 2.835 9.733 2.919 9.636 3.061 L 9.003 4.055 C 8.85 4.295 8.92 4.614 9.161 4.767 Z M 3.359 8.554 C 3.429 8.858 4.332 8.692 4.282 8.48 C 3.981 7.13 5.015 6.16 6.365 5.859 C 7.715 5.556 8.954 6.058 9.253 7.409 C 9.256 7.422 9.155 7.235 9.258 7.547 C 9.619 7.595 10.209 7.437 10.177 7.268 C 9.585 4.612 6.523 3.858 4.518 5.699 C 3.587 6.553 3.183 7.838 3.458 9.071 L 3.359 8.554 Z"/>
  <path d="M 12.564 8.48 C 12.426 8.485 12.289 8.498 12.154 8.52 C 10.251 5.597 5.97 5.597 4.068 8.52 C 3.932 8.498 3.796 8.485 3.659 8.48 C 1.13 8.482 -0.449 11.22 0.817 13.41 C 1.647 14.844 3.415 15.436 4.942 14.79 C 6.747 16.404 9.476 16.404 11.281 14.79 C 13.608 15.78 16.135 13.879 15.828 11.368 C 15.627 9.718 14.225 8.479 12.564 8.48 Z M 12.564 14.019 C 12.261 14.02 11.962 13.959 11.684 13.84 C 11.319 13.685 10.899 13.753 10.601 14.013 C 9.185 15.286 7.036 15.286 5.621 14.013 C 5.323 13.753 4.903 13.686 4.539 13.84 C 2.941 14.518 1.209 13.212 1.421 11.49 C 1.56 10.36 2.52 9.511 3.659 9.511 C 3.717 9.514 3.776 9.52 3.834 9.531 L 3.939 9.545 C 4.33 9.594 4.715 9.416 4.931 9.086 C 6.426 6.784 9.795 6.784 11.291 9.086 C 11.506 9.416 11.891 9.594 12.283 9.545 L 12.388 9.531 C 12.446 9.52 12.505 9.514 12.564 9.511 C 14.299 9.511 15.383 11.39 14.516 12.892 C 14.113 13.59 13.369 14.019 12.564 14.019 L 12.564 14.019 Z"/>
</svg>